# xmcd CD database file
#
# Track frame offsets:
#	150
#	16991
#	37379
#	53806
#	76027
#	96664
#	113708
#	132372
#	149009
#	164329
#
# Disc length: 2505 seconds
#
# Revision: 5
# Processed by: cddbd v1.5.2PL0 Copyright (c) Steve Scherf et al.
# Submitted via: CDex 1.70beta3
#
DISCID=8c09c70a
DTITLE=PERSONZ - PERSONZ
DYEAR=1987
DGENRE=Rock
TTITLE0=Midnight Teenage Shuffle
TTITLE1=Burnin' With Love
TTITLE2=Girls, Will Be Girls
TTITLE3=Walkin' Day Dream
TTITLE4=Lucky Star
TTITLE5=Freedom World
TTITLE6=陽炎達のGOSPEL
TTITLE7=REMEMBER (Eyes Of Children)
TTITLE8=Tomorrow Is Another Day
TTITLE9=Never Surrender
EXTD=YEAR: 1987
EXTT0=
EXTT1=
EXTT2=
EXTT3=
EXTT4=
EXTT5=
EXTT6=
EXTT7=
EXTT8=
EXTT9=
PLAYORDER=
